# xmcd CD database file
#
# Track frame offsets:
#	150
#	17816
#	28636
#	44677
#	57122
#	76491
#	95216
#	107161
#	126768
#	138016
#	151922
#	166860
#	183670
#	201069
#	219761
#	239128
#	256084
#	269468
#
# Disc length: 3783 seconds
#
# Revision: 1
# Processed by: cddbd v1.5.1PL0 Copyright (c) Steve Scherf et al.
# Submitted via: CDex 1.51
#
DISCID=fa0ec512
DTITLE=Christoph Rois - The Real Boogie Woogie and Blues Piano
DYEAR=2004
DGENRE=Boogie
TTITLE0=Take off Boogie
TTITLE1=Bass Goin' Crazy
TTITLE2=Doing The Chicago Blues
TTITLE3=Bear Cat Crawl
TTITLE4=Feeling like in 12.000 Feet
TTITLE5=In the Mood to Play the Blues
TTITLE6=Meades' Style Boogie
TTITLE7=Inspirations on the old Grand Piano
TTITLE8=Ammons' Heritage
TTITLE9=Left Hand from Lewis
TTITLE10=Boogie Rocks
TTITLE11=Closing Time Blues
TTITLE12=My Blues Feeling
TTITLE13=My Way to Play the Blues
TTITLE14=Johnsons's Style Blues
TTITLE15=Holguin Feeling
TTITLE16=Still Alive (After Flying Cubana Air)
TTITLE17=Mischa
EXTD=It's a Boogie Woogie album....with a little blues ! YEAR: 2004
EXTT0=
EXTT1=
EXTT2=
EXTT3=
EXTT4=
EXTT5=
EXTT6=
EXTT7=
EXTT8=
EXTT9=
EXTT10=
EXTT11=
EXTT12=
EXTT13=
EXTT14=
EXTT15=
EXTT16=
EXTT17=
PLAYORDER=
